# xmcd
#
# Track frame offsets: 
#        150
#        22930
#        37122
#        53785
#        71590
#        83450
#        97570
#        115562
#        132755
#        149165
#        166277
#        184187
#        206322
#        222205
#        238545
#        256427
#        281325
#
# Disc length: 4053 seconds
#
# Revision: 7
# Processed by: cddbd v1.5.2PL0 Copyright (c) Steve Scherf et al.
# Submitted via: ExactAudioCopyFreeDBPlugin 1.0
#
DISCID=e20fd311
DTITLE=Louis Armstrong and Duke Ellington - The Great Summit - The Maste
DTITLE=r Takes
DYEAR=1961
DGENRE=Jazz
TTITLE0=Duke's Place [Ellington-Roberts-Katz-Thiele]
TTITLE1=I'm Just A Lucky So And So [D. Ellington-M. David]
TTITLE2=Cottontail [Duke Ellington]
TTITLE3=Mood Indigo [Ellington-Bigard-Mills]
TTITLE4=Do Nothin' Till You Hear From Me [Ellington-Russell]
TTITLE5=The Beautiful American [Duke Ellington]
TTITLE6=Black And Tan Fantasy [B. Miley-D. Ellington]
TTITLE7=Drop Me Off In Harlem [D. Ellington-N. Kenny]
TTITLE8=The Mooche [D. Ellington-I. Mills]
TTITLE9=In A Mellow Tone [Duke Ellington]
TTITLE10=It Don't Mean A Thing (If It Ain't Got That Swing) [D. Elling
TTITLE10=ton-I. Mills]
TTITLE11=Solitude [Ellington-DeLange-Mills]
TTITLE12=Don't Get Around Much Anymore [D. Ellingotn-B. Russel]
TTITLE13=I'm Beginning To See The Light [Ellington-Hodges-James-George
TTITLE13=]
TTITLE14=Just Squeeze Me [D. Ellington-L. Gaines]
TTITLE15=I Got It Bad (And That Ain't Good) [D. Ellington-P.F. Webster
TTITLE15=]
TTITLE16=Azalea [Duke Ellington]
EXTD=Original session produced by Bob Thiele\nRecorded at RCA Studios,
EXTD=New York City, on april 3 and 4, 1961.\n\nLuis Armstrong - trump
EXTD=et, vocals\nDuke Ellington - piano\nTrummy Young - trombone\nBarn
EXTD=ey Bigard - clarinet\nMort Herbert - bass\nDanny Barcelona - drum
EXTD=s YEAR: 2000
EXTT0=
EXTT1=
EXTT2=
EXTT3=
EXTT4=
EXTT5=
EXTT6=
EXTT7=
EXTT8=
EXTT9=
EXTT10=
EXTT11=
EXTT12=
EXTT13=
EXTT14=
EXTT15=
EXTT16=
PLAYORDER=
